<?xml version="1.0" standalone="no"?>
<!DOCTYPE svg PUBLIC "-//W3C//DTD SVG 20010904//EN"
 "http://www.w3.org/TR/2001/REC-SVG-20010904/DTD/svg10.dtd">
<svg version="1.0" xmlns="http://www.w3.org/2000/svg"
 width="391.000000pt" height="362.000000pt" viewBox="0 0 391.000000 362.000000"
 preserveAspectRatio="xMidYMid meet">

<g transform="translate(0.000000,362.000000) scale(0.100000,-0.100000)"
fill="#000000" stroke="none">
<path d="M704 2920 c-56 -22 -33 -54 45 -66 59 -9 126 -55 151 -104 20 -38 20
-60 20 -916 0 -869 0 -878 -21 -921 -11 -23 -33 -52 -48 -62 -33 -23 -107 -51
-138 -51 -29 0 -48 -33 -29 -49 9 -8 131 -10 417 -9 l404 3 3 31 3 31 -90 6
c-102 6 -154 32 -191 94 -20 34 -20 47 -20 1011 0 537 -4 983 -8 989 -10 15
-464 27 -498 13z"/>
<path d="M1428 2922 c-39 -3 -54 -24 -42 -56 5 -12 20 -16 68 -16 33 0 87 -9
120 -20 141 -48 217 -128 271 -290 27 -77 26 -336 0 -395 -9 -22 -22 -51 -28
-65 -23 -51 -76 -116 -116 -140 -22 -14 -41 -28 -41 -32 0 -11 -156 -58 -191
-58 -16 0 -29 -5 -29 -12 0 -7 25 -55 55 -107 30 -51 55 -95 55 -97 0 -2 23
-40 50 -84 28 -44 50 -82 50 -84 0 -16 257 -404 336 -507 50 -66 161 -169 181
-169 8 0 24 -6 36 -14 42 -27 157 -37 362 -34 195 3 200 4 203 24 4 25 -19 34
-87 34 -44 0 -87 11 -148 37 -17 7 -34 13 -38 13 -14 0 -133 102 -171 147 -21
25 -44 51 -49 57 -69 74 -207 268 -280 394 -11 17 -23 32 -27 32 -4 0 -8 4 -8
9 0 8 -56 104 -120 205 -39 63 -70 120 -70 130 0 6 27 24 61 39 223 102 341
284 340 524 0 157 -31 235 -130 333 -64 64 -189 140 -229 140 -10 0 -22 4 -27
8 -13 11 -96 28 -210 42 -49 7 -94 13 -100 14 -5 0 -27 0 -47 -2z"/>
<path d="M2140 2916 c-6 -8 -10 -25 -8 -38 3 -21 9 -24 78 -29 201 -17 324
-119 384 -318 24 -79 22 -299 -3 -377 -37 -116 -79 -173 -176 -237 -50 -33
-147 -67 -192 -67 -24 0 -33 -4 -33 -16 0 -14 89 -174 168 -302 12 -20 27 -46
32 -57 6 -11 24 -40 40 -65 16 -25 34 -54 39 -65 28 -61 262 -393 321 -455 28
-29 103 -88 137 -107 55 -31 155 -43 358 -43 112 0 210 3 219 6 24 9 19 41 -6
48 -13 3 -46 6 -73 6 -64 0 -173 39 -233 84 -123 90 -352 383 -503 642 -13 23
-37 65 -54 93 -16 28 -33 51 -37 51 -5 0 -8 4 -8 10 0 5 -15 33 -34 62 -53 84
-53 90 2 112 68 27 173 100 226 156 47 50 92 135 121 230 20 65 17 244 -5 300
-36 94 -68 145 -125 196 -107 97 -239 147 -465 178 -142 20 -154 20 -170 2z"/>
</g>
</svg>
